HIERARCHY
ROOT Hips
{
	OFFSET 16.857300 39.481499 -7.567760 
	CHANNELS 6 Xposition Yposition Zposition Zrotation Xrotation Yrotation
	JOINT LeftHip
	{
		OFFSET 3.430000 0.000000 0.000000 
		CHANNELS 6 Xposition Yposition Zposition Zrotation Xrotation Yrotation
		JOINT LeftKnee
		{
			OFFSET 0.000000 -18.469999 0.000000 
			CHANNELS 6 Xposition Yposition Zposition Zrotation Xrotation Yrotation
			JOINT LeftAnkle
			{
				OFFSET 0.000000 -17.950001 0.000000 
				CHANNELS 6 Xposition Yposition Zposition Zrotation Xrotation Yrotation
				End Site
				{
					OFFSET 0.000000 -3.120000 0.000000 
				}
			}
		}
	}
	JOINT RightHip
	{
		OFFSET -3.430000 0.000000 0.000000 
		CHANNELS 6 Xposition Yposition Zposition Zrotation Xrotation Yrotation
		JOINT RightKnee
		{
			OFFSET 0.000000 -18.469999 0.000000 
			CHANNELS 6 Xposition Yposition Zposition Zrotation Xrotation Yrotation
			JOINT RightAnkle
			{
				OFFSET 0.000000 -17.950001 0.000000 
				CHANNELS 6 Xposition Yposition Zposition Zrotation Xrotation Yrotation
				End Site
				{
					OFFSET 0.000000 -3.120000 0.000000 
				}
			}
		}
	}
	JOINT Chest
	{
		OFFSET 0.000000 4.570000 0.000000 
		CHANNELS 6 Xposition Yposition Zposition Zrotation Xrotation Yrotation
		JOINT CS_BVH
		{
			OFFSET 0.000000 6.570000 0.000000 
			CHANNELS 6 Xposition Yposition Zposition Zrotation Xrotation Yrotation
			JOINT LeftCollar
			{
				OFFSET 1.060000 4.190000 1.760000 
				CHANNELS 6 Xposition Yposition Zposition Zrotation Xrotation Yrotation
				JOINT LeftShoulder
				{
					OFFSET 5.810000 0.000000 0.000000 
					CHANNELS 6 Xposition Yposition Zposition Zrotation Xrotation Yrotation
					JOINT LeftElbow
					{
						OFFSET 0.000000 -12.080000 0.000000 
						CHANNELS 6 Xposition Yposition Zposition Zrotation Xrotation Yrotation
						JOINT LeftWrist
						{
							OFFSET 0.000000 -9.820000 0.000000 
							CHANNELS 6 Xposition Yposition Zposition Zrotation Xrotation Yrotation
							End Site
							{
								OFFSET 0.000000 -7.370000 0.000000 
							}
						}
					}
				}
			}
			JOINT RightCollar
			{
				OFFSET -1.060000 4.190000 1.760000 
				CHANNELS 6 Xposition Yposition Zposition Zrotation Xrotation Yrotation
				JOINT RightShoulder
				{
					OFFSET -6.060000 0.000000 0.000000 
					CHANNELS 6 Xposition Yposition Zposition Zrotation Xrotation Yrotation
					JOINT RightElbow
					{
						OFFSET 0.000000 -11.080000 0.000000 
						CHANNELS 6 Xposition Yposition Zposition Zrotation Xrotation Yrotation
						JOINT RightWrist
						{
							OFFSET 0.000000 -9.820000 0.000000 
							CHANNELS 6 Xposition Yposition Zposition Zrotation Xrotation Yrotation
							End Site
							{
								OFFSET 0.000000 -7.140010 0.000000 
							}
						}
					}
				}
			}
			JOINT Neck
			{
				OFFSET 0.000000 4.050000 0.000000 
				CHANNELS 6 Xposition Yposition Zposition Zrotation Xrotation Yrotation
				JOINT Head
				{
					OFFSET 0.000000 5.190000 0.000000 
					CHANNELS 6 Xposition Yposition Zposition Zrotation Xrotation Yrotation
					End Site
					{
						OFFSET 0.000000 4.140010 0.000000 
					}
				}
			}
		}
	}
}
MOTION
Frames: 7
Frame Time: 0.033333
-12.354200 37.385300 11.249000 40.618195 -7.626830 -35.193199 3.430000 -0.000000 0.000000 27.811600 -6.664190 -11.709000 0.000000 -18.469999 -0.000000 167.078003 66.726097 -176.255005 0.000000 -17.950001 -0.000000 2.723650 -7.114390 -0.305988 -3.430000 0.000000 0.000000 -54.080101 -44.617199 -37.422501 0.000000 -18.469999 -0.000000 -16.796700 54.989101 16.120701 0.000000 -17.950001 -0.000000 -0.635856 -7.741150 0.356285 -0.000000 4.570000 0.000000 7.551110 20.931801 -7.845080 -0.000000 6.570000 0.000000 -25.402599 16.166100 5.201240 1.060000 4.190000 1.760000 -5.634110 -0.531556 -3.079330 5.810000 -0.000000 0.000000 21.463900 -6.104540 58.643600 -0.000000 -12.080000 -0.000000 -23.084200 -18.476500 -45.842602 -0.000000 -9.820000 0.000000 11.916300 -2.026500 0.962229 -1.060000 4.190000 1.760000 -19.716200 -0.625631 -4.406760 -6.060000 0.000000 0.000000 -120.765999 -13.628700 -98.541496 -0.000000 -11.080000 -0.000000 8.184740 0.012243 -2.543340 -0.000000 -9.820000 -0.000000 -2.564180 5.717110 -0.995005 -0.000000 4.050000 0.000000 2.480630 -40.132198 -0.657315 -0.000000 5.190000 0.000000 -4.414300 -9.499960 0.552143 
-14.164600 37.259804 11.286400 38.102085 -6.072778 -38.511303 3.430000 -0.000000 0.000000 14.630000 -16.597900 -6.501470 0.000000 -18.469999 -0.000000 170.977997 61.415501 -179.863007 0.000000 -17.950001 -0.000000 2.810490 -8.109040 -0.313625 -3.430000 0.000000 0.000000 -44.403900 -46.190498 -30.849199 0.000000 -18.469999 -0.000000 -17.316500 55.496300 16.888399 0.000000 -17.950001 -0.000000 -1.088990 -8.543980 0.392618 -0.000000 4.570000 0.000000 9.108640 23.009701 -7.209220 -0.000000 6.570000 0.000000 -21.712799 21.208700 4.530510 1.060000 4.190000 1.760000 -7.126720 -0.393828 -3.881450 5.810000 -0.000000 0.000000 16.411501 -7.560360 55.763000 -0.000000 -12.080000 -0.000000 -22.676701 -17.435301 -47.832901 -0.000000 -9.820000 0.000000 10.600600 -1.473440 -0.049145 -1.060000 4.190000 1.760000 -17.753700 -0.932285 -2.718520 -6.060000 0.000000 0.000000 -119.892998 -19.106800 -100.861000 -0.000000 -11.080000 -0.000000 8.730150 0.012890 -2.770170 -0.000000 -9.820000 -0.000000 -2.844970 6.019400 -1.675930 -0.000000 4.050000 0.000000 1.002120 -41.840698 -0.481635 -0.000000 5.190000 0.000000 -4.397680 -10.688800 0.714146 
-16.172100 37.719597 11.485400 36.126347 -4.790552 -42.964310 3.430000 -0.000000 0.000000 -0.477445 -30.637600 -2.019980 0.000000 -18.469999 -0.000000 165.751007 65.911697 -170.796997 0.000000 -17.950001 -0.000000 1.996510 -7.667460 -0.294208 -3.430000 0.000000 0.000000 -35.544300 -45.435799 -25.704000 0.000000 -18.469999 -0.000000 -15.810800 53.241100 16.044701 0.000000 -17.950001 -0.000000 -1.654920 -9.160730 0.426363 -0.000000 4.570000 0.000000 8.272450 28.348101 -5.363040 -0.000000 6.570000 0.000000 -15.362900 25.005301 3.826320 1.060000 4.190000 1.760000 -10.779700 0.046262 -5.977600 5.810000 -0.000000 0.000000 12.871300 -6.634590 51.287399 -0.000000 -12.080000 -0.000000 -24.476601 -19.327499 -51.830502 -0.000000 -9.820000 0.000000 9.239740 -0.912820 -1.221820 -1.060000 4.190000 1.760000 -17.454700 -1.164430 -1.339870 -6.060000 0.000000 0.000000 -118.892998 -25.395300 -104.228996 -0.000000 -11.080000 -0.000000 9.064000 0.013476 0.039303 -0.000000 -9.820000 -0.000000 -2.331840 6.060750 -1.562210 -0.000000 4.050000 0.000000 -6.271000 -42.512798 -2.402290 -0.000000 5.190000 0.000000 -0.696400 -12.296000 -1.151430 
-18.266899 38.283798 11.780100 33.985989 -4.267076 -48.695908 3.430000 -0.000000 0.000000 -13.503800 -42.184101 -4.651490 0.000000 -18.469999 -0.000000 139.160004 79.444702 -141.901001 0.000000 -17.950001 -0.000000 1.351980 -7.417330 -0.274638 -3.430000 0.000000 0.000000 -28.748899 -44.080299 -22.455900 0.000000 -18.469999 -0.000000 -13.360800 52.389099 14.656400 0.000000 -17.950001 -0.000000 -1.898950 -9.514830 0.443752 -0.000000 4.570000 0.000000 5.506970 35.477798 -2.617620 -0.000000 6.570000 0.000000 -10.314100 27.784100 4.657100 1.060000 4.190000 1.760000 -15.264100 0.827434 -8.923010 5.810000 -0.000000 0.000000 12.559600 -4.107270 45.918499 -0.000000 -12.080000 -0.000000 -28.215000 -23.103901 -55.244900 -0.000000 -9.820000 0.000000 7.672940 -0.164030 -2.351100 -1.060000 4.190000 1.760000 -17.966101 -1.458790 0.287077 -6.060000 0.000000 0.000000 -117.463997 -30.971901 -107.714996 -0.000000 -11.080000 -0.000000 9.029910 0.014073 5.356910 -0.000000 -9.820000 -0.000000 -1.884080 5.701890 -0.698666 -0.000000 4.050000 0.000000 -16.082199 -40.699799 -4.968110 -0.000000 5.190000 0.000000 4.932420 -15.871900 -3.885310 
-20.303200 38.699104 12.058200 31.724703 -3.155840 -54.813801 3.430000 -0.000000 0.000000 -20.427299 -50.022900 -8.856980 0.000000 -18.469999 -0.000000 29.799000 75.002800 -31.414301 0.000000 -17.950001 -0.000000 0.977557 -7.677300 -0.271839 -3.430000 0.000000 0.000000 -23.792200 -44.440399 -21.079201 0.000000 -18.469999 -0.000000 -10.170500 55.398602 13.152400 0.000000 -17.950001 -0.000000 -1.862900 -9.595290 0.445527 -0.000000 4.570000 0.000000 2.614930 41.060299 0.216618 -0.000000 6.570000 0.000000 -9.166250 29.990900 7.081530 1.060000 4.190000 1.760000 -18.536100 1.563330 -11.140800 5.810000 -0.000000 0.000000 14.172000 -1.532840 41.002800 -0.000000 -12.080000 -0.000000 -32.427299 -26.871401 -56.560200 -0.000000 -9.820000 0.000000 5.576000 0.946697 -3.661810 -1.060000 4.190000 1.760000 -17.917400 -1.890920 2.773860 -6.060000 0.000000 0.000000 -115.903000 -35.352001 -110.372002 -0.000000 -11.080000 -0.000000 8.844580 0.014652 9.839320 -0.000000 -9.820000 -0.000000 -2.297350 5.307130 -0.108253 -0.000000 4.050000 0.000000 -23.096701 -36.849499 -5.729370 -0.000000 5.190000 0.000000 9.452660 -20.790400 -5.532320 
-22.224501 38.598503 12.334600 29.690098 -0.653934 -59.766800 3.430000 -0.000000 0.000000 -20.678699 -56.469601 -8.392830 0.000000 -18.469999 -0.000000 11.905200 55.702400 -13.150300 0.000000 -17.950001 -0.000000 0.690975 -8.032080 -0.273742 -3.430000 0.000000 0.000000 -20.568800 -46.753502 -21.608900 0.000000 -18.469999 -0.000000 -5.880280 62.481899 11.172600 0.000000 -17.950001 -0.000000 -1.688680 -9.390210 0.442699 -0.000000 4.570000 0.000000 0.653945 43.397099 2.590610 -0.000000 6.570000 0.000000 -9.589920 31.742300 9.755700 1.060000 4.190000 1.760000 -20.310301 1.992780 -12.196800 5.810000 -0.000000 0.000000 15.479300 0.183093 38.600201 -0.000000 -12.080000 -0.000000 -35.210800 -28.335600 -55.903301 -0.000000 -9.820000 0.000000 3.890280 1.881750 -4.706030 -1.060000 4.190000 1.760000 -16.428499 -2.286770 5.748770 -6.060000 0.000000 0.000000 -115.023003 -38.856098 -112.081001 -0.000000 -11.080000 -0.000000 9.068350 0.015161 14.616100 -0.000000 -9.820000 -0.000000 -3.490700 4.922410 0.129242 -0.000000 4.050000 0.000000 -26.355000 -32.321499 -4.563130 -0.000000 5.190000 0.000000 11.745200 -24.667700 -5.713030 
-24.156500 37.391304 12.733900 26.582394 2.398170 -63.077595 3.430000 -0.000000 0.000000 -16.411699 -62.193699 -2.733360 0.000000 -18.469999 -0.000000 4.759040 44.702702 -7.696740 0.000000 -17.950001 -0.000000 0.697383 -8.103120 -0.274911 -3.430000 0.000000 0.000000 -19.027599 -49.053200 -23.704201 0.000000 -18.469999 -0.000000 -0.488836 73.751999 8.033090 0.000000 -17.950001 -0.000000 -1.525040 -9.271210 0.440050 -0.000000 4.570000 0.000000 -0.406983 43.363201 4.973900 -0.000000 6.570000 0.000000 -8.438080 33.761501 11.652100 1.060000 4.190000 1.760000 -20.945299 2.130250 -12.443800 5.810000 -0.000000 0.000000 14.903500 0.995978 39.477699 -0.000000 -12.080000 -0.000000 -34.971401 -26.140600 -54.591400 -0.000000 -9.820000 0.000000 3.881750 1.804430 -5.046940 -1.060000 4.190000 1.760000 -13.201400 -2.311340 7.947330 -6.060000 0.000000 0.000000 -114.886002 -41.934200 -113.069000 -0.000000 -11.080000 -0.000000 9.804660 0.015173 23.193100 -0.000000 -9.820000 -0.000000 -5.361490 4.154120 0.759329 -0.000000 4.050000 0.000000 -26.945999 -28.306700 -2.477680 -0.000000 5.190000 0.000000 11.961600 -26.183701 -4.904350 
